# xmcd CD database file
#
# Track frame offsets:
#	150
#	16350
#	33405
#	48272
#
# Disc length: 817 seconds
#
# Revision: 0
# Processed by: cddbd v1.5.1PL0 Copyright (c) Steve Scherf et al.
# Submitted via: CDex 1.50
#
DISCID=27032f04
DTITLE=SQUEEZE!! - 流れ星
DYEAR=2003
DGENRE=JPop
TTITLE0=流れ星
TTITLE1=Change yourself...
TTITLE2=One night summer love
TTITLE3=First step
EXTD=YEAR: 2003
EXTT0=
EXTT1=
EXTT2=
EXTT3=
PLAYORDER=
